<svg width="22" height="21" viewBox="0 0 22 21" fill="none" xmlns="http://www.w3.org/2000/svg">
<g id="comment">
<path id="comment_2" fill-rule="evenodd" clip-rule="evenodd" d="M11.2848 4.75269C7.16901 4.75269 3.83333 7.33938 3.83333 10.5318C3.83333 11.9099 4.45622 13.1713 5.49244 14.1632C5.1286 15.5635 3.91192 16.811 3.89736 16.8249C3.83333 16.8888 3.81586 16.9832 3.8537 17.0666C3.89154 17.1499 3.97304 17.2 4.06619 17.2C5.99599 17.2 7.44261 16.3164 8.15865 15.7719C9.11045 16.1136 10.167 16.3109 11.2848 16.3109C15.4005 16.3109 18.7362 13.7242 18.7362 10.5318C18.7362 7.33938 15.4005 4.75269 11.2848 4.75269Z" fill="#FF7B15"/>
<mask id="mask0" mask-type="alpha" maskUnits="userSpaceOnUse" x="1" y="2" width="20" height="17">
<path id="comment_3" fill-rule="evenodd" clip-rule="evenodd" d="M11 2.84375C5.93684 2.84375 1.83333 6.02588 1.83333 9.95312C1.83333 11.6484 2.5996 13.2002 3.87434 14.4204C3.42675 16.1431 1.93001 17.6777 1.9121 17.6948C1.83333 17.7734 1.81184 17.8896 1.85839 17.9922C1.90494 18.0947 2.0052 18.1562 2.11979 18.1562C4.49381 18.1562 6.27343 17.0693 7.15429 16.3994C8.32519 16.8198 9.62499 17.0625 11 17.0625C16.0631 17.0625 20.1667 13.8804 20.1667 9.95312C20.1667 6.02588 16.0631 2.84375 11 2.84375Z" fill="white"/>
</mask>
<g mask="url(#mask0)">
</g>
</g>
</svg>
