<svg width="22" height="21" viewBox="0 0 22 21" fill="none" xmlns="http://www.w3.org/2000/svg">
<g id="comments">
<path id="comments_2" fill-rule="evenodd" clip-rule="evenodd" d="M8.4537 3.69434C12.1108 3.69434 15.0741 5.86968 15.0741 8.55545C15.0741 11.2412 12.1108 13.4166 8.4537 13.4166C7.14872 13.4166 5.93605 13.134 4.91116 12.657C4.2173 13.0429 3.25289 13.4166 2.08796 13.4166C1.98611 13.4166 1.89699 13.3619 1.85561 13.2707C1.81423 13.1796 1.83333 13.0763 1.90335 13.0064C1.9129 12.9973 2.61631 12.2681 3.04282 11.3506C2.28211 10.5576 1.83333 9.59755 1.83333 8.55545C1.83333 5.86968 4.79658 3.69434 8.4537 3.69434ZM20.1667 12.4443C20.1667 13.4864 19.7179 14.4495 18.9572 15.2395C19.3837 16.16 20.0871 16.8862 20.0966 16.8953C20.1667 16.9682 20.1858 17.0715 20.1444 17.1596C20.1062 17.2477 20.0139 17.3054 19.912 17.3054C18.7471 17.3054 17.7827 16.9317 17.0888 16.5459C16.0639 17.0259 14.8513 17.3054 13.5463 17.3054C10.8027 17.3054 8.44733 16.078 7.44473 14.3311C7.77575 14.3645 8.10995 14.3888 8.4537 14.3888C12.6646 14.3888 16.0926 11.7729 16.0926 8.55545C16.0926 8.34885 16.0799 8.14529 16.0512 7.94477C18.4638 8.6709 20.1667 10.4118 20.1667 12.4443Z" fill="#FF7B15"/>
<mask id="mask0" mask-type="alpha" maskUnits="userSpaceOnUse" x="1" y="3" width="20" height="15">
<path id="comments_3" fill-rule="evenodd" clip-rule="evenodd" d="M8.4537 3.69434C12.1108 3.69434 15.0741 5.86968 15.0741 8.55545C15.0741 11.2412 12.1108 13.4166 8.4537 13.4166C7.14872 13.4166 5.93605 13.134 4.91116 12.657C4.2173 13.0429 3.25289 13.4166 2.08796 13.4166C1.98611 13.4166 1.89699 13.3619 1.85561 13.2707C1.81423 13.1796 1.83333 13.0763 1.90335 13.0064C1.9129 12.9973 2.61631 12.2681 3.04282 11.3506C2.28211 10.5576 1.83333 9.59755 1.83333 8.55545C1.83333 5.86968 4.79658 3.69434 8.4537 3.69434ZM20.1667 12.4443C20.1667 13.4864 19.7179 14.4495 18.9572 15.2395C19.3837 16.16 20.0871 16.8862 20.0966 16.8953C20.1667 16.9682 20.1858 17.0715 20.1444 17.1596C20.1062 17.2477 20.0139 17.3054 19.912 17.3054C18.7471 17.3054 17.7827 16.9317 17.0888 16.5459C16.0639 17.0259 14.8513 17.3054 13.5463 17.3054C10.8027 17.3054 8.44733 16.078 7.44473 14.3311C7.77575 14.3645 8.10995 14.3888 8.4537 14.3888C12.6646 14.3888 16.0926 11.7729 16.0926 8.55545C16.0926 8.34885 16.0799 8.14529 16.0512 7.94477C18.4638 8.6709 20.1667 10.4118 20.1667 12.4443Z" fill="white"/>
</mask>
<g mask="url(#mask0)">
<g id="&#240;&#159;&#142;&#168; color">
<rect id="&#240;&#159;&#142;&#168; Color" width="22" height="21" fill="#FF7B15"/>
</g>
</g>
</g>
</svg>
