<svg width="22" height="21" viewBox="0 0 22 21" fill="none" xmlns="http://www.w3.org/2000/svg">
<g id="handshake">
<path id="handshake_2" fill-rule="evenodd" clip-rule="evenodd" d="M11.825 5.25H14.2857C14.5292 5.25 14.7641 5.34297 14.9331 5.50703L16.4971 7V12.291C16.4284 12.2172 16.3539 12.1461 16.2708 12.0805L12.1 8.84844L12.8477 8.19492C13.0338 8.03086 13.0482 7.75469 12.8763 7.57695C12.7073 7.39922 12.4151 7.38828 12.2289 7.54961L9.9401 9.55117C9.93867 9.55254 9.93652 9.55322 9.93437 9.55391L9.93159 9.55487C9.93046 9.55533 9.92944 9.55588 9.92864 9.55664C9.45025 9.96406 8.68541 9.86289 8.32161 9.48281C7.91484 9.05898 7.90624 8.37813 8.38177 7.95156C8.3832 7.9502 8.38463 7.94814 8.38606 7.94609C8.38749 7.94404 8.38893 7.94199 8.39036 7.94062L11.2062 5.47969C11.3753 5.33203 11.5958 5.25 11.825 5.25ZM17.4167 13.1277V7.00547H20.1667V14.0027H18.3333C17.8263 14.0027 17.4167 13.6117 17.4167 13.1277ZM18.7917 13.1269C18.5396 13.1269 18.3333 12.9302 18.3333 12.6898C18.3333 12.4494 18.5396 12.2527 18.7917 12.2527C19.0437 12.2527 19.25 12.4494 19.25 12.6898C19.25 12.9302 19.0437 13.1269 18.7917 13.1269ZM3.66666 14H1.83333V7.00547H4.58333V13.125C4.58333 13.609 4.17369 14 3.66666 14ZM3.20833 12.2527C3.46041 12.2527 3.66666 12.4494 3.66666 12.6898C3.66666 12.9302 3.46041 13.1269 3.20833 13.1269C2.95625 13.1269 2.75 12.9302 2.75 12.6898C2.75 12.4467 2.95625 12.2527 3.20833 12.2527ZM11.4182 9.44727L15.695 12.7613C16.0875 13.0676 16.1477 13.6172 15.8268 13.9945L15.5547 14.3145C15.2367 14.6918 14.6581 14.7465 14.2656 14.443L14.1109 14.3227L13.2115 15.3781C12.8419 15.8129 12.1687 15.8812 11.7133 15.5258L11.2005 15.102L11.1948 15.1074C10.556 15.8566 9.40156 15.9715 8.61666 15.3617L6.02421 13.1223H5.5V7L7.06692 5.50703C7.2388 5.34297 7.47083 5.25 7.71432 5.25H10.1148L7.77161 7.29805C6.93515 8.03086 6.875 9.275 7.64557 10.0789C8.40468 10.8691 9.70807 10.9402 10.5588 10.1992L11.4182 9.44727Z" fill="#FF7B15"/>
<mask id="mask0" mask-type="alpha" maskUnits="userSpaceOnUse" x="1" y="5" width="20" height="11">
<path id="handshake_3" fill-rule="evenodd" clip-rule="evenodd" d="M11.825 5.25H14.2857C14.5292 5.25 14.7641 5.34297 14.9331 5.50703L16.4971 7V12.291C16.4284 12.2172 16.3539 12.1461 16.2708 12.0805L12.1 8.84844L12.8477 8.19492C13.0338 8.03086 13.0482 7.75469 12.8763 7.57695C12.7073 7.39922 12.4151 7.38828 12.2289 7.54961L9.9401 9.55117C9.93867 9.55254 9.93652 9.55322 9.93437 9.55391L9.93159 9.55487C9.93046 9.55533 9.92944 9.55588 9.92864 9.55664C9.45025 9.96406 8.68541 9.86289 8.32161 9.48281C7.91484 9.05898 7.90624 8.37813 8.38177 7.95156C8.3832 7.9502 8.38463 7.94814 8.38606 7.94609C8.38749 7.94404 8.38893 7.94199 8.39036 7.94062L11.2062 5.47969C11.3753 5.33203 11.5958 5.25 11.825 5.25ZM17.4167 13.1277V7.00547H20.1667V14.0027H18.3333C17.8263 14.0027 17.4167 13.6117 17.4167 13.1277ZM18.7917 13.1269C18.5396 13.1269 18.3333 12.9302 18.3333 12.6898C18.3333 12.4494 18.5396 12.2527 18.7917 12.2527C19.0437 12.2527 19.25 12.4494 19.25 12.6898C19.25 12.9302 19.0437 13.1269 18.7917 13.1269ZM3.66666 14H1.83333V7.00547H4.58333V13.125C4.58333 13.609 4.17369 14 3.66666 14ZM3.20833 12.2527C3.46041 12.2527 3.66666 12.4494 3.66666 12.6898C3.66666 12.9302 3.46041 13.1269 3.20833 13.1269C2.95625 13.1269 2.75 12.9302 2.75 12.6898C2.75 12.4467 2.95625 12.2527 3.20833 12.2527ZM11.4182 9.44727L15.695 12.7613C16.0875 13.0676 16.1477 13.6172 15.8268 13.9945L15.5547 14.3145C15.2367 14.6918 14.6581 14.7465 14.2656 14.443L14.1109 14.3227L13.2115 15.3781C12.8419 15.8129 12.1687 15.8812 11.7133 15.5258L11.2005 15.102L11.1948 15.1074C10.556 15.8566 9.40156 15.9715 8.61666 15.3617L6.02421 13.1223H5.5V7L7.06692 5.50703C7.2388 5.34297 7.47083 5.25 7.71432 5.25H10.1148L7.77161 7.29805C6.93515 8.03086 6.875 9.275 7.64557 10.0789C8.40468 10.8691 9.70807 10.9402 10.5588 10.1992L11.4182 9.44727Z" fill="white"/>
</mask>
<g mask="url(#mask0)">
<g id="&#240;&#159;&#142;&#168; color">
<rect id="&#240;&#159;&#142;&#168; Color" width="22" height="21" fill="#FF7B15"/>
</g>
</g>
</g>
</svg>
