<svg width="22" height="21" viewBox="0 0 22 21" fill="none" xmlns="http://www.w3.org/2000/svg">
<g id="hiking">
<path id="hiking_2" fill-rule="evenodd" clip-rule="evenodd" d="M14.4487 3.38743C14.4487 4.29176 13.6807 5.02485 12.7333 5.02485C11.7859 5.02485 11.0179 4.29176 11.0179 3.38743C11.0179 2.48309 11.7859 1.75 12.7333 1.75C13.6807 1.75 14.4487 2.48309 14.4487 3.38743ZM9.0523 5.74123L7.58135 11.169C7.50308 11.4562 7.18538 11.6309 6.87124 11.5592L4.59977 11.039C4.28599 10.967 4.09551 10.676 4.17378 10.3888L5.07686 7.04128C5.4689 5.60512 7.05815 4.73217 8.62631 5.09104C8.94009 5.16302 9.13057 5.454 9.0523 5.74123ZM7.88118 19.1832C7.26864 19.0371 6.89626 18.4446 7.04922 17.8592L8.2843 13.1441L10.1705 14.9446L9.26851 18.389C9.13807 18.8847 8.67205 19.2156 8.15994 19.2156C8.06773 19.2156 7.97446 19.2057 7.88118 19.1832ZM17.3077 7.2081H16.7359C16.4199 7.2081 16.1641 7.45235 16.1641 7.75391V8.29972H14.9222L13.2504 6.70391C12.8541 6.32491 12.3262 6.11648 11.7651 6.11648C10.7995 6.11648 9.96146 6.74075 9.72703 7.63519L8.76497 11.3099C8.66764 11.6819 8.78186 12.0754 9.06588 12.3465L12.1615 15.3014V18.1243C12.1615 18.7271 12.6736 19.2159 13.3051 19.2159C13.9365 19.2159 14.4487 18.7271 14.4487 18.1243V15.3014C14.4487 14.7184 14.2107 14.1702 13.7786 13.7578L12.1054 12.1606C12.1079 12.1526 12.1119 12.1454 12.116 12.1382C12.1205 12.1301 12.1251 12.1219 12.1275 12.1125L12.8383 9.39816L13.6399 10.1633C13.8543 10.368 14.1453 10.4833 14.4483 10.4833H16.1637V18.6704C16.1637 18.972 16.4196 19.2162 16.7355 19.2162H17.3073C17.6232 19.2162 17.8791 18.972 17.8791 18.6704V7.75391C17.8795 7.45235 17.6236 7.2081 17.3077 7.2081Z" fill="#FF7B15"/>
<mask id="mask0" mask-type="alpha" maskUnits="userSpaceOnUse" x="4" y="1" width="14" height="19">
<path id="hiking_3" fill-rule="evenodd" clip-rule="evenodd" d="M14.4487 3.38743C14.4487 4.29176 13.6807 5.02485 12.7333 5.02485C11.7859 5.02485 11.0179 4.29176 11.0179 3.38743C11.0179 2.48309 11.7859 1.75 12.7333 1.75C13.6807 1.75 14.4487 2.48309 14.4487 3.38743ZM9.0523 5.74123L7.58135 11.169C7.50308 11.4562 7.18538 11.6309 6.87124 11.5592L4.59977 11.039C4.28599 10.967 4.09551 10.676 4.17378 10.3888L5.07686 7.04128C5.4689 5.60512 7.05815 4.73217 8.62631 5.09104C8.94009 5.16302 9.13057 5.454 9.0523 5.74123ZM7.88118 19.1832C7.26864 19.0371 6.89626 18.4446 7.04922 17.8592L8.2843 13.1441L10.1705 14.9446L9.26851 18.389C9.13807 18.8847 8.67205 19.2156 8.15994 19.2156C8.06773 19.2156 7.97446 19.2057 7.88118 19.1832ZM17.3077 7.2081H16.7359C16.4199 7.2081 16.1641 7.45235 16.1641 7.75391V8.29972H14.9222L13.2504 6.70391C12.8541 6.32491 12.3262 6.11648 11.7651 6.11648C10.7995 6.11648 9.96146 6.74075 9.72703 7.63519L8.76497 11.3099C8.66764 11.6819 8.78186 12.0754 9.06588 12.3465L12.1615 15.3014V18.1243C12.1615 18.7271 12.6736 19.2159 13.3051 19.2159C13.9365 19.2159 14.4487 18.7271 14.4487 18.1243V15.3014C14.4487 14.7184 14.2107 14.1702 13.7786 13.7578L12.1054 12.1606C12.1079 12.1526 12.1119 12.1454 12.116 12.1382C12.1205 12.1301 12.1251 12.1219 12.1275 12.1125L12.8383 9.39816L13.6399 10.1633C13.8543 10.368 14.1453 10.4833 14.4483 10.4833H16.1637V18.6704C16.1637 18.972 16.4196 19.2162 16.7355 19.2162H17.3073C17.6232 19.2162 17.8791 18.972 17.8791 18.6704V7.75391C17.8795 7.45235 17.6236 7.2081 17.3077 7.2081Z" fill="white"/>
</mask>
<g mask="url(#mask0)">
<g id="&#240;&#159;&#142;&#168; color">
<rect id="&#240;&#159;&#142;&#168; Color" width="22" height="21" fill="#FF7B15"/>
</g>
</g>
</g>
</svg>
