<svg width="275" height="233" viewBox="0 0 275 233" fill="none" xmlns="http://www.w3.org/2000/svg" xmlns:xlink="http://www.w3.org/1999/xlink">
<g>
<path fill-rule="evenodd" clip-rule="evenodd" d="M158.565 223C218.272 223 266.674 174.598 266.674 114.891C266.674 101.293 264.164 88.2805 259.58 76.2931C264.071 69.2722 266.674 60.9276 266.674 51.9751C266.674 27.0156 246.441 6.78198 221.481 6.78198C212.529 6.78198 204.184 9.38512 197.163 13.8758C185.176 9.29267 172.164 6.78198 158.565 6.78198C102.888 6.78198 57.0419 48.8705 51.1064 102.967C38.9615 111.068 30.9612 124.894 30.9612 140.589C30.9612 165.549 51.1948 185.782 76.1543 185.782C76.4155 185.782 76.6762 185.78 76.9363 185.776C96.7572 208.581 125.977 223 158.565 223ZM30.9612 72.7954C43.6423 72.7954 53.9224 62.5154 53.9224 49.8342C53.9224 37.1531 43.6423 26.873 30.9612 26.873C18.2801 26.873 8 37.1531 8 49.8342C8 62.5154 18.2801 72.7954 30.9612 72.7954Z"/>
</g>

</svg>
