<svg width="22" height="21" viewBox="0 0 22 21" fill="none" xmlns="http://www.w3.org/2000/svg">
<g id="running">
<path id="running_2" fill-rule="evenodd" clip-rule="evenodd" d="M13.2917 5.03125C14.2409 5.03125 15.0104 4.29673 15.0104 3.39062C15.0104 2.48452 14.2409 1.75 13.2917 1.75C12.3424 1.75 11.5729 2.48452 11.5729 3.39062C11.5729 4.29673 12.3424 5.03125 13.2917 5.03125ZM7.62301 12.601L7.09306 13.7809H4.69791C4.0652 13.7809 3.55208 14.2707 3.55208 14.8747C3.55208 15.4786 4.0652 15.9684 4.69791 15.9684H7.47119C8.16048 15.9684 8.78102 15.5774 9.05065 14.9741L9.36539 14.2728L8.98333 14.0574C8.36315 13.7078 7.90696 13.1903 7.62301 12.601ZM15.7255 9.40592H17.3021C17.9348 9.40592 18.4479 9.89537 18.4479 10.4993C18.4479 11.1033 17.9348 11.5931 17.3021 11.5931H15.3688C14.7175 11.5931 14.1116 11.2325 13.8252 10.674L13.0994 9.25792L11.9782 11.9335L14.1711 13.1688C14.8425 13.5553 15.1576 14.3179 14.946 15.0278L13.813 18.482C13.6594 18.9496 13.2075 19.2493 12.7202 19.2493C12.6067 19.2493 12.4914 19.2329 12.3771 19.1987C11.7734 19.0183 11.4372 18.4047 11.6263 17.8285L12.6099 14.8299L9.56699 13.1151C8.57835 12.558 8.17337 11.3777 8.62526 10.3701L9.9666 7.38316L9.44023 7.2338C9.15986 7.17022 8.81002 7.24234 8.53538 7.44366L7.11419 8.48307C6.61217 8.85016 5.89352 8.76026 5.50787 8.28072C5.12223 7.80118 5.21748 7.11485 5.71985 6.74742L7.14033 5.70802C7.9664 5.10338 9.02164 4.88976 10.035 5.12218L12.5802 5.84474C13.523 6.07408 14.3448 6.71256 14.7923 7.58585L15.7255 9.40592Z" fill="#FF7B15"/>
<mask id="mask0" mask-type="alpha" maskUnits="userSpaceOnUse" x="3" y="1" width="16" height="19">
<path id="running_3" fill-rule="evenodd" clip-rule="evenodd" d="M13.2917 5.03125C14.2409 5.03125 15.0104 4.29673 15.0104 3.39062C15.0104 2.48452 14.2409 1.75 13.2917 1.75C12.3424 1.75 11.5729 2.48452 11.5729 3.39062C11.5729 4.29673 12.3424 5.03125 13.2917 5.03125ZM7.62301 12.601L7.09306 13.7809H4.69791C4.0652 13.7809 3.55208 14.2707 3.55208 14.8747C3.55208 15.4786 4.0652 15.9684 4.69791 15.9684H7.47119C8.16048 15.9684 8.78102 15.5774 9.05065 14.9741L9.36539 14.2728L8.98333 14.0574C8.36315 13.7078 7.90696 13.1903 7.62301 12.601ZM15.7255 9.40592H17.3021C17.9348 9.40592 18.4479 9.89537 18.4479 10.4993C18.4479 11.1033 17.9348 11.5931 17.3021 11.5931H15.3688C14.7175 11.5931 14.1116 11.2325 13.8252 10.674L13.0994 9.25792L11.9782 11.9335L14.1711 13.1688C14.8425 13.5553 15.1576 14.3179 14.946 15.0278L13.813 18.482C13.6594 18.9496 13.2075 19.2493 12.7202 19.2493C12.6067 19.2493 12.4914 19.2329 12.3771 19.1987C11.7734 19.0183 11.4372 18.4047 11.6263 17.8285L12.6099 14.8299L9.56699 13.1151C8.57835 12.558 8.17337 11.3777 8.62526 10.3701L9.9666 7.38316L9.44023 7.2338C9.15986 7.17022 8.81002 7.24234 8.53538 7.44366L7.11419 8.48307C6.61217 8.85016 5.89352 8.76026 5.50787 8.28072C5.12223 7.80118 5.21748 7.11485 5.71985 6.74742L7.14033 5.70802C7.9664 5.10338 9.02164 4.88976 10.035 5.12218L12.5802 5.84474C13.523 6.07408 14.3448 6.71256 14.7923 7.58585L15.7255 9.40592Z" fill="white"/>
</mask>
<g mask="url(#mask0)">
<g id="&#240;&#159;&#142;&#168; color">
<rect id="&#240;&#159;&#142;&#168; Color" width="22" height="21" fill="#FF7B15"/>
</g>
</g>
</g>
</svg>
