<svg width="20" height="20" viewBox="0 0 20 20" fill="none" xmlns="http://www.w3.org/2000/svg">
<g id="user-graduate">
<path id="user-graduate_2" fill-rule="evenodd" clip-rule="evenodd" d="M3.37248 4.34038L3.16456 4.29165C2.57651 4.1487 2.57651 3.40796 3.16456 3.26501L9.35689 1.77378C9.77924 1.67306 10.2243 1.67306 10.6467 1.77378L16.8325 3.26826C17.4238 3.41121 17.4238 4.1487 16.8325 4.29165L13.7039 5.04538C13.9865 5.60419 14.1587 6.22797 14.1587 6.89724C14.1587 9.19418 12.2971 11.0558 10.0002 11.0558C7.70322 11.0558 5.84162 9.19418 5.84162 6.89724C5.84162 6.22797 6.01706 5.60419 6.29646 5.04538L4.15221 4.52881V6.23772C4.37963 6.37417 4.54208 6.61134 4.54208 6.89724C4.54208 7.17014 4.39263 7.39756 4.18145 7.53726L4.68827 9.5613C4.74351 9.78548 4.62005 10.0161 4.44136 10.0161H3.08334C2.90465 10.0161 2.78119 9.78548 2.83642 9.5613L3.34324 7.53726C3.13207 7.39756 2.98262 7.17014 2.98262 6.89724C2.98262 6.61134 3.14506 6.37417 3.37248 6.23772V4.34038ZM10 15.2143L13.0994 12.1149C15.4224 12.2156 17.2775 14.1162 17.2775 16.4619V16.7738C17.2775 17.6347 16.5789 18.3332 15.718 18.3332H4.282C3.42106 18.3332 2.72255 17.6347 2.72255 16.7738V16.4619C2.72255 14.1162 4.57765 12.2156 6.90059 12.1149L10 15.2143Z" fill="#FF7B15"/>
</g>
</svg>
