<svg width="22" height="21" viewBox="0 0 22 21" fill="none" xmlns="http://www.w3.org/2000/svg">
<g id="users">
<path id="users_2" fill-rule="evenodd" clip-rule="evenodd" d="M14.2083 7.4375C14.2083 9.13008 12.7732 10.5 11 10.5C9.22682 10.5 7.79166 9.13008 7.79166 7.4375C7.79166 5.74492 9.22682 4.375 11 4.375C12.7732 4.375 14.2083 5.74492 14.2083 7.4375ZM6.41666 7.875C6.41666 8.84023 5.59453 9.625 4.58333 9.625C3.57213 9.625 2.75 8.84023 2.75 7.875C2.75 6.90977 3.57213 6.125 4.58333 6.125C5.59453 6.125 6.41666 6.90977 6.41666 7.875ZM19.25 7.875C19.25 8.84023 18.4279 9.625 17.4167 9.625C16.4055 9.625 15.5833 8.84023 15.5833 7.875C15.5833 6.90977 16.4055 6.125 17.4167 6.125C18.4279 6.125 19.25 6.90977 19.25 7.875ZM18.3333 10.5H16.5C15.9958 10.5 15.5404 10.6942 15.2081 11.0086C16.3625 11.6129 17.1818 12.7039 17.3594 14H19.25C19.757 14 20.1667 13.609 20.1667 13.125V12.25C20.1667 11.2848 19.3445 10.5 18.3333 10.5ZM13.2 11.375H12.9622C12.3664 11.6484 11.7047 11.8125 11 11.8125C10.2953 11.8125 9.63645 11.6484 9.03776 11.375H8.8C6.97812 11.375 5.5 12.7859 5.5 14.525V15.3125C5.5 16.0371 6.11588 16.625 6.875 16.625H15.125C15.8841 16.625 16.5 16.0371 16.5 15.3125V14.525C16.5 12.7859 15.0219 11.375 13.2 11.375ZM5.49999 10.5C6.00416 10.5 6.45963 10.6942 6.79192 11.0086C5.63749 11.6129 4.81822 12.7039 4.63776 14H2.74999C2.24296 14 1.83333 13.609 1.83333 13.125V12.25C1.83333 11.2848 2.65546 10.5 3.66666 10.5H5.49999Z" fill="#FF7B15"/>
<mask id="mask0" mask-type="alpha" maskUnits="userSpaceOnUse" x="1" y="4" width="20" height="13">
<path id="users_3" fill-rule="evenodd" clip-rule="evenodd" d="M14.2083 7.4375C14.2083 9.13008 12.7732 10.5 11 10.5C9.22682 10.5 7.79166 9.13008 7.79166 7.4375C7.79166 5.74492 9.22682 4.375 11 4.375C12.7732 4.375 14.2083 5.74492 14.2083 7.4375ZM6.41666 7.875C6.41666 8.84023 5.59453 9.625 4.58333 9.625C3.57213 9.625 2.75 8.84023 2.75 7.875C2.75 6.90977 3.57213 6.125 4.58333 6.125C5.59453 6.125 6.41666 6.90977 6.41666 7.875ZM19.25 7.875C19.25 8.84023 18.4279 9.625 17.4167 9.625C16.4055 9.625 15.5833 8.84023 15.5833 7.875C15.5833 6.90977 16.4055 6.125 17.4167 6.125C18.4279 6.125 19.25 6.90977 19.25 7.875ZM18.3333 10.5H16.5C15.9958 10.5 15.5404 10.6942 15.2081 11.0086C16.3625 11.6129 17.1818 12.7039 17.3594 14H19.25C19.757 14 20.1667 13.609 20.1667 13.125V12.25C20.1667 11.2848 19.3445 10.5 18.3333 10.5ZM13.2 11.375H12.9622C12.3664 11.6484 11.7047 11.8125 11 11.8125C10.2953 11.8125 9.63645 11.6484 9.03776 11.375H8.8C6.97812 11.375 5.5 12.7859 5.5 14.525V15.3125C5.5 16.0371 6.11588 16.625 6.875 16.625H15.125C15.8841 16.625 16.5 16.0371 16.5 15.3125V14.525C16.5 12.7859 15.0219 11.375 13.2 11.375ZM5.49999 10.5C6.00416 10.5 6.45963 10.6942 6.79192 11.0086C5.63749 11.6129 4.81822 12.7039 4.63776 14H2.74999C2.24296 14 1.83333 13.609 1.83333 13.125V12.25C1.83333 11.2848 2.65546 10.5 3.66666 10.5H5.49999Z" fill="white"/>
</mask>
<g mask="url(#mask0)">
<g id="&#240;&#159;&#142;&#168; color">
<rect id="&#240;&#159;&#142;&#168; Color" width="22" height="21" fill="#FF7B15"/>
</g>
</g>
</g>
</svg>
